<svg width="91" height="36" viewBox="0 0 91 36" fill="none" xmlns="http://www.w3.org/2000/svg">
<path d="M8.58997 30.457C5.70715 30.457 3.5802 29.7305 2.20911 28.2773C0.849731 26.8242 0.129028 24.3984 0.0469971 21L6.09387 20.209C6.09387 21.1699 6.14661 21.9785 6.25208 22.6348C6.35754 23.291 6.50989 23.7949 6.70911 24.1465C6.90833 24.4863 7.11926 24.7266 7.34192 24.8672C7.57629 25.0078 7.84583 25.0781 8.15051 25.0781C8.94739 25.0781 9.34583 24.5039 9.34583 23.3555C9.34583 22.2305 9.08801 21.2637 8.57239 20.4551C8.06848 19.6465 7.25403 18.7617 6.12903 17.8008L4.28333 16.2363C3.61536 15.6621 3.06458 15.1523 2.63098 14.707C2.20911 14.2617 1.77551 13.7168 1.3302 13.0723C0.896606 12.416 0.574341 11.6953 0.363403 10.9102C0.152466 10.125 0.0469971 9.25195 0.0469971 8.29102C0.0469971 5.77148 0.802856 3.83203 2.31458 2.47266C3.83801 1.10156 5.93567 0.410156 8.60754 0.398438C13.3888 0.398438 15.797 3.23437 15.8322 8.90625L9.64465 9.52148C9.64465 8.75977 9.63293 8.19141 9.6095 7.81641C9.59778 7.42969 9.5509 7.03711 9.46887 6.63867C9.38684 6.22852 9.25208 5.94727 9.06458 5.79492C8.88879 5.63086 8.64856 5.54883 8.34387 5.54883C7.91028 5.56055 7.58215 5.78906 7.3595 6.23438C7.13684 6.67969 7.02551 7.13086 7.02551 7.58789C7.02551 7.83398 7.04309 8.07422 7.07825 8.30859C7.12512 8.54297 7.16614 8.75391 7.20129 8.94141C7.23645 9.11719 7.31262 9.31641 7.42981 9.53906C7.547 9.75 7.63489 9.91992 7.69348 10.0488C7.75208 10.1777 7.86926 10.3477 8.04504 10.5586C8.22083 10.7695 8.33801 10.916 8.39661 10.998C8.4552 11.0801 8.59583 11.2266 8.81848 11.4375C9.04114 11.6484 9.1759 11.7773 9.22278 11.8242C9.26965 11.8594 9.422 11.9941 9.67981 12.2285C9.93762 12.4512 10.0782 12.5742 10.1017 12.5977L11.7892 14.0918C12.504 14.7363 13.1075 15.3398 13.5997 15.9023C14.1036 16.4648 14.5841 17.1152 15.0411 17.8535C15.4982 18.5801 15.838 19.377 16.0607 20.2441C16.295 21.0996 16.4122 22.0254 16.4122 23.0215C16.4122 25.1191 15.6915 26.8828 14.2501 28.3125C12.8204 29.7422 10.9337 30.457 8.58997 30.457ZM30.4936 25.5176C30.8803 25.5176 31.1967 25.4355 31.4428 25.2715C31.6889 25.0957 31.8647 24.8438 31.9701 24.5156C32.0756 24.1875 32.1401 23.8887 32.1635 23.6191C32.1987 23.3496 32.2162 23.0156 32.2162 22.6172V8.2207C32.2162 7.82227 32.1987 7.48828 32.1635 7.21875C32.1401 6.94922 32.0756 6.65625 31.9701 6.33984C31.8647 6.01172 31.6889 5.76562 31.4428 5.60156C31.1967 5.42578 30.8803 5.33789 30.4936 5.33789C30.1772 5.33789 29.9076 5.40234 29.685 5.53125C29.4623 5.66016 29.2924 5.8125 29.1752 5.98828C29.0697 6.15234 28.9877 6.38672 28.9291 6.69141C28.8705 6.98438 28.8354 7.23047 28.8237 7.42969C28.8237 7.61719 28.8237 7.88086 28.8237 8.2207V22.6172C28.8237 22.9453 28.8237 23.209 28.8237 23.4082C28.8354 23.6074 28.8705 23.8594 28.9291 24.1641C28.9877 24.457 29.0697 24.6914 29.1752 24.8672C29.2924 25.0312 29.4623 25.1836 29.685 25.3242C29.9076 25.4531 30.1772 25.5176 30.4936 25.5176ZM37.2787 35.6777C36.4115 35.3379 35.3393 34.6582 34.0619 33.6387C32.7963 32.6191 31.8002 31.5527 31.0737 30.4395C31.0151 30.4395 30.9213 30.4395 30.7924 30.4395C30.6635 30.4512 30.5639 30.457 30.4936 30.457C28.8295 30.457 27.4115 30.2461 26.2397 29.8242C25.0678 29.3906 24.1362 28.752 23.4447 27.9082C22.7533 27.0527 22.2553 26.0508 21.9506 24.9023C21.6459 23.7422 21.4936 22.377 21.4936 20.8066V10.0488C21.4936 8.47852 21.6459 7.11914 21.9506 5.9707C22.2553 4.81055 22.7533 3.80859 23.4447 2.96484C24.1362 2.10937 25.0678 1.4707 26.2397 1.04883C27.4115 0.615234 28.8295 0.398438 30.4936 0.398438C32.1576 0.398438 33.5756 0.615234 34.7475 1.04883C35.9311 1.4707 36.8686 2.10937 37.56 2.96484C38.2631 3.80859 38.767 4.81055 39.0717 5.9707C39.3881 7.11914 39.5463 8.47852 39.5463 10.0488V20.8066C39.5463 25.0957 38.31 27.9258 35.8373 29.2969C36.9623 30.4688 37.9584 31.2656 38.8256 31.6875L37.2787 35.6777ZM47.6511 30L44.5398 0.855469H50.5866L51.9226 16.6758L53.6101 0.855469H58.2859L60.1316 16.5176L61.5027 0.855469H67.4968L64.3503 30H57.9519L55.9304 13.5469L54.0847 30H47.6511ZM72.8242 30V0.855469H80.5059C82.5098 0.855469 84.1563 1.02539 85.4453 1.36523C86.7461 1.69336 87.7832 2.24414 88.5567 3.01758C89.3301 3.79102 89.8692 4.74609 90.1738 5.88281C90.4902 7.00781 90.6485 8.43164 90.6485 10.1543V20.666C90.6485 22.4004 90.4902 23.8359 90.1738 24.9727C89.8692 26.0977 89.3301 27.0527 88.5567 27.8379C87.7832 28.6113 86.7461 29.168 85.4453 29.5078C84.1563 29.8359 82.5156 30 80.5235 30H72.8242ZM79.961 25.0781H80.6289C81.2383 25.0781 81.7188 25.0312 82.0703 24.9375C82.4336 24.832 82.7031 24.6504 82.8789 24.3926C83.0664 24.1348 83.1836 23.8535 83.2305 23.5488C83.2891 23.2324 83.3184 22.793 83.3184 22.2305V8.55469C83.3184 7.99219 83.2891 7.55859 83.2305 7.25391C83.1836 6.94922 83.0664 6.67383 82.8789 6.42773C82.7031 6.18164 82.4336 6.01172 82.0703 5.91797C81.7188 5.82422 81.2383 5.77734 80.6289 5.77734H79.961V25.0781Z" fill="white"/>
</svg>
