<?xml version="1.0" encoding="utf-8"?><!-- Uploaded to: SVG Repo, www.svgrepo.com, Generator: SVG Repo Mixer Tools -->
<svg fill="#000000" width="800px" height="800px" viewBox="0 0 1024 1024" xmlns="http://www.w3.org/2000/svg"><path d="M721.35 276.913c74.471 17.955 117.123 44.28 117.123 63.843 0 40.993-146.918 86.016-327.025 86.016-180.105 0-327.014-45.022-327.014-86.016 0-21.431 50.015-49.946 134.469-67.759 11.067-2.334 18.147-13.198 15.813-24.266s-13.198-18.147-24.266-15.813c-102.809 21.684-166.976 58.267-166.976 107.837 0 76.642 164.24 126.976 367.974 126.976 203.737 0 367.985-50.334 367.985-126.976 0-46.623-56.473-81.479-148.482-103.662-10.996-2.651-22.059 4.114-24.71 15.109s4.114 22.059 15.109 24.71zM838.58 856.26c0 40.951-146.781 85.934-326.738 85.934-179.538 0-327.465-45.804-327.465-86.958 0-11.311-9.169-20.48-20.48-20.48s-20.48 9.169-20.48 20.48c0 76.702 165.405 127.918 368.425 127.918 203.586 0 367.698-50.294 367.698-126.894 0-11.311-9.169-20.48-20.48-20.48s-20.48 9.169-20.48 20.48z"/><path d="M143.36 341.445v514.816c0 11.311 9.169 20.48 20.48 20.48s20.48-9.169 20.48-20.48V341.445c0-11.311-9.169-20.48-20.48-20.48s-20.48 9.169-20.48 20.48zm695.316 4.155v514.56c0 11.311 9.169 20.48 20.48 20.48s20.48-9.169 20.48-20.48V345.6c0-11.311-9.169-20.48-20.48-20.48s-20.48 9.169-20.48 20.48zm-496.069 91.529v-234.26c0-5.657 4.583-10.24 10.24-10.24h73.39c5.657 0 10.24 4.583 10.24 10.24v234.26h40.96v-234.26c0-28.278-22.922-51.2-51.2-51.2h-73.39c-28.278 0-51.2 22.922-51.2 51.2v234.26h40.96z"/><path d="M402.497 30.72c28.278 0 51.2 22.922 51.2 51.2v110.705H325.38V81.92c0-28.276 22.929-51.2 51.2-51.2h25.917zm10.24 51.2c0-5.657-4.583-10.24-10.24-10.24H376.58c-5.651 0-10.24 4.588-10.24 10.24v69.745h46.397V81.92zm160.191 364.709V81.921c0-5.657 4.583-10.24 10.24-10.24h102.4c5.657 0 10.24 4.583 10.24 10.24v344.852h40.96V81.921c0-28.278-22.922-51.2-51.2-51.2h-102.4c-28.278 0-51.2 22.922-51.2 51.2v364.708h40.96z"/><path d="M699.648 111.672h-55.04c-11.311 0-20.48 9.169-20.48 20.48s9.169 20.48 20.48 20.48h55.04c11.311 0 20.48-9.169 20.48-20.48s-9.169-20.48-20.48-20.48zm0 81.92h-55.04c-11.311 0-20.48 9.169-20.48 20.48s9.169 20.48 20.48 20.48h55.04c11.311 0 20.48-9.169 20.48-20.48s-9.169-20.48-20.48-20.48zm0 81.92h-75.52c-11.311 0-20.48 9.169-20.48 20.48s9.169 20.48 20.48 20.48h75.52c11.311 0 20.48-9.169 20.48-20.48s-9.169-20.48-20.48-20.48zm0 81.92h-55.04c-11.311 0-20.48 9.169-20.48 20.48s9.169 20.48 20.48 20.48h55.04c11.311 0 20.48-9.169 20.48-20.48s-9.169-20.48-20.48-20.48zm-225.707-92.899h62.29v-40.96h-62.29z"/></svg>